<svg width="70" height="71" viewBox="0 0 70 71" fill="none" xmlns="http://www.w3.org/2000/svg">
<rect y="0.5" width="70" height="70" rx="15" fill="#903737"/>
<path d="M29.326 29.0507L28.2731 29.2111L17.3498 30.875L17.3483 30.8752C17.2293 30.8932 17.0985 30.9713 17.0297 31.193C16.9601 31.417 17.0131 31.62 17.1516 31.7608L17.1521 31.7614L25.0549 39.8073L25.7663 40.5316L25.6015 41.5333L23.7326 52.8978C23.7326 52.8981 23.7325 52.8984 23.7325 52.8987C23.6911 53.1531 23.7897 53.3257 23.9198 53.4237C23.9876 53.4748 24.0514 53.4947 24.0967 53.499C24.1324 53.5024 24.1825 53.4999 24.259 53.4575L24.2653 53.454L34.0373 48.0875L35 47.5587L35.9627 48.0875L45.7347 53.454L45.735 53.4542C45.812 53.4965 45.8637 53.4995 45.9017 53.4958C45.9489 53.4913 46.0138 53.4707 46.0816 53.4197C46.211 53.3225 46.3087 53.1524 46.2676 52.8991L29.326 29.0507ZM29.326 29.0507L29.7806 28.0877L34.6625 17.7459C34.6626 17.7458 34.6626 17.7456 34.6627 17.7454C34.6628 17.7454 34.6628 17.7453 34.6628 17.7452C34.7201 17.6243 34.7825 17.5723 34.824 17.5468C34.8719 17.5172 34.9308 17.4998 34.9959 17.5C35.0614 17.5002 35.1238 17.5183 35.1759 17.5507C35.2219 17.5792 35.2836 17.6329 35.3383 17.7477C35.3385 17.7481 35.3387 17.7484 35.3389 17.7488L40.2194 28.0877L40.674 29.0507L41.7269 29.2111L52.6502 30.875L52.6517 30.8752C52.7707 30.8932 52.9015 30.9713 52.9703 31.193C53.0399 31.417 52.9869 31.62 52.8484 31.7608L52.8479 31.7614L44.9451 39.8073L44.2337 40.5316L44.3985 41.5333L46.2674 52.8978L29.326 29.0507Z" stroke="white" stroke-width="4"/>
</svg>
